<mxfile host="www.draw.io" modified="2019-12-31T02:58:24.697Z" agent="Mozilla/5.0 (Macintosh; Intel Mac OS X 10_14_6) AppleWebKit/537.36 (KHTML, like Gecko) Chrome/79.0.3945.88 Safari/537.36" etag="rGPDdaNyI2wH7eu-i_SN" version="12.4.7" type="github">
  <diagram id="Gk4kHyFn3zn3_QR2qy4u" name="Page-1">
    <mxGraphModel dx="1168" dy="637" grid="1" gridSize="10" guides="1" tooltips="1" connect="1" arrows="1" fold="1" page="1" pageScale="1" pageWidth="827" pageHeight="1169" math="0" shadow="0">
      <root>
        <mxCell id="0"/>
        <mxCell id="1" parent="0"/>
        <mxCell id="psz0ONWJy-oLL9iXoKW5-1" value="Gray&amp;nbsp;" style="shape=cylinder;whiteSpace=wrap;html=1;boundedLbl=1;backgroundOutline=1;fillColor=#f5f5f5;strokeColor=#666666;gradientColor=#b3b3b3;" parent="1" vertex="1">
          <mxGeometry x="130" y="650" width="80" height="80" as="geometry"/>
        </mxCell>
        <mxCell id="psz0ONWJy-oLL9iXoKW5-3" value="Production" style="shape=cylinder;whiteSpace=wrap;html=1;boundedLbl=1;backgroundOutline=1;fillColor=#d5e8d4;strokeColor=#82b366;gradientColor=#97d077;" parent="1" vertex="1">
          <mxGeometry x="400" y="650" width="80" height="80" as="geometry"/>
        </mxCell>
        <mxCell id="psz0ONWJy-oLL9iXoKW5-37" style="edgeStyle=orthogonalEdgeStyle;rounded=0;orthogonalLoop=1;jettySize=auto;html=1;exitX=0.5;exitY=1;exitDx=0;exitDy=0;entryX=0.5;entryY=0;entryDx=0;entryDy=0;dashed=1;strokeColor=#A680B8;strokeWidth=2;" parent="1" source="psz0ONWJy-oLL9iXoKW5-9" target="psz0ONWJy-oLL9iXoKW5-13" edge="1">
          <mxGeometry relative="1" as="geometry"/>
        </mxCell>
        <mxCell id="psz0ONWJy-oLL9iXoKW5-9" value="HSF预发集群" style="rounded=1;whiteSpace=wrap;html=1;gradientColor=#b3b3b3;fillColor=#f5f5f5;strokeColor=#666666;" parent="1" vertex="1">
          <mxGeometry x="110" y="470" width="120" height="60" as="geometry"/>
        </mxCell>
        <mxCell id="psz0ONWJy-oLL9iXoKW5-44" style="edgeStyle=orthogonalEdgeStyle;rounded=0;orthogonalLoop=1;jettySize=auto;html=1;exitX=0.5;exitY=1;exitDx=0;exitDy=0;dashed=1;strokeColor=#FF0080;strokeWidth=2;" parent="1" source="psz0ONWJy-oLL9iXoKW5-10" target="psz0ONWJy-oLL9iXoKW5-14" edge="1">
          <mxGeometry relative="1" as="geometry"/>
        </mxCell>
        <mxCell id="psz0ONWJy-oLL9iXoKW5-10" value="HSF生产集群" style="rounded=1;whiteSpace=wrap;html=1;gradientColor=#97d077;fillColor=#d5e8d4;strokeColor=#82b366;" parent="1" vertex="1">
          <mxGeometry x="380" y="470" width="120" height="60" as="geometry"/>
        </mxCell>
        <mxCell id="psz0ONWJy-oLL9iXoKW5-36" style="edgeStyle=orthogonalEdgeStyle;rounded=0;orthogonalLoop=1;jettySize=auto;html=1;exitX=0;exitY=0.5;exitDx=0;exitDy=0;entryX=0.5;entryY=0;entryDx=0;entryDy=0;dashed=1;strokeColor=#A680B8;strokeWidth=2;" parent="1" source="psz0ONWJy-oLL9iXoKW5-11" target="psz0ONWJy-oLL9iXoKW5-9" edge="1">
          <mxGeometry relative="1" as="geometry"/>
        </mxCell>
        <mxCell id="psz0ONWJy-oLL9iXoKW5-40" value="VipServer" style="text;html=1;align=center;verticalAlign=middle;resizable=0;points=[];labelBackgroundColor=#ffffff;" parent="psz0ONWJy-oLL9iXoKW5-36" vertex="1" connectable="0">
          <mxGeometry x="-0.28" y="-3" relative="1" as="geometry">
            <mxPoint as="offset"/>
          </mxGeometry>
        </mxCell>
        <mxCell id="psz0ONWJy-oLL9iXoKW5-11" value="ep-app-server-gray" style="rounded=1;whiteSpace=wrap;html=1;fillColor=#f5f5f5;strokeColor=#666666;gradientColor=#b3b3b3;" parent="1" vertex="1">
          <mxGeometry x="310" y="360" width="120" height="60" as="geometry"/>
        </mxCell>
        <mxCell id="psz0ONWJy-oLL9iXoKW5-43" style="edgeStyle=orthogonalEdgeStyle;rounded=0;orthogonalLoop=1;jettySize=auto;html=1;exitX=0.5;exitY=1;exitDx=0;exitDy=0;dashed=1;strokeColor=#FF0080;strokeWidth=2;" parent="1" source="psz0ONWJy-oLL9iXoKW5-12" target="psz0ONWJy-oLL9iXoKW5-10" edge="1">
          <mxGeometry relative="1" as="geometry"/>
        </mxCell>
        <mxCell id="psz0ONWJy-oLL9iXoKW5-12" value="ep-app-server" style="rounded=1;whiteSpace=wrap;html=1;gradientColor=#97d077;fillColor=#d5e8d4;strokeColor=#82b366;" parent="1" vertex="1">
          <mxGeometry x="450" y="360" width="120" height="60" as="geometry"/>
        </mxCell>
        <mxCell id="psz0ONWJy-oLL9iXoKW5-38" style="edgeStyle=orthogonalEdgeStyle;rounded=0;orthogonalLoop=1;jettySize=auto;html=1;exitX=0.5;exitY=1;exitDx=0;exitDy=0;entryX=0.5;entryY=0;entryDx=0;entryDy=0;dashed=1;strokeColor=#A680B8;strokeWidth=2;" parent="1" source="psz0ONWJy-oLL9iXoKW5-13" target="psz0ONWJy-oLL9iXoKW5-1" edge="1">
          <mxGeometry relative="1" as="geometry"/>
        </mxCell>
        <mxCell id="psz0ONWJy-oLL9iXoKW5-13" value="gray config" style="rounded=0;whiteSpace=wrap;html=1;gradientColor=#b3b3b3;fillColor=#f5f5f5;strokeColor=#666666;" parent="1" vertex="1">
          <mxGeometry x="110" y="560" width="120" height="40" as="geometry"/>
        </mxCell>
        <mxCell id="psz0ONWJy-oLL9iXoKW5-45" style="edgeStyle=orthogonalEdgeStyle;rounded=0;orthogonalLoop=1;jettySize=auto;html=1;exitX=0.5;exitY=1;exitDx=0;exitDy=0;entryX=0.5;entryY=0;entryDx=0;entryDy=0;dashed=1;strokeColor=#FF0080;strokeWidth=2;" parent="1" source="psz0ONWJy-oLL9iXoKW5-14" target="psz0ONWJy-oLL9iXoKW5-3" edge="1">
          <mxGeometry relative="1" as="geometry"/>
        </mxCell>
        <mxCell id="psz0ONWJy-oLL9iXoKW5-14" value="prod config" style="rounded=0;whiteSpace=wrap;html=1;gradientColor=#97d077;fillColor=#d5e8d4;strokeColor=#82b366;" parent="1" vertex="1">
          <mxGeometry x="380" y="560" width="120" height="40" as="geometry"/>
        </mxCell>
        <mxCell id="psz0ONWJy-oLL9iXoKW5-22" value="" style="endArrow=none;dashed=1;html=1;strokeColor=#FF0000;strokeWidth=4;" parent="1" edge="1">
          <mxGeometry width="50" height="50" relative="1" as="geometry">
            <mxPoint x="289.5" y="740" as="sourcePoint"/>
            <mxPoint x="289.5" y="230" as="targetPoint"/>
          </mxGeometry>
        </mxCell>
        <mxCell id="psz0ONWJy-oLL9iXoKW5-32" style="edgeStyle=orthogonalEdgeStyle;rounded=0;orthogonalLoop=1;jettySize=auto;html=1;exitX=0.5;exitY=1;exitDx=0;exitDy=0;dashed=1;strokeColor=#A680B8;strokeWidth=2;" parent="1" source="psz0ONWJy-oLL9iXoKW5-27" target="psz0ONWJy-oLL9iXoKW5-11" edge="1">
          <mxGeometry relative="1" as="geometry"/>
        </mxCell>
        <mxCell id="psz0ONWJy-oLL9iXoKW5-39" value="VipServer" style="text;html=1;align=center;verticalAlign=middle;resizable=0;points=[];labelBackgroundColor=#ffffff;" parent="psz0ONWJy-oLL9iXoKW5-32" vertex="1" connectable="0">
          <mxGeometry x="-0.192" y="1" relative="1" as="geometry">
            <mxPoint as="offset"/>
          </mxGeometry>
        </mxCell>
        <mxCell id="psz0ONWJy-oLL9iXoKW5-35" style="edgeStyle=orthogonalEdgeStyle;rounded=0;orthogonalLoop=1;jettySize=auto;html=1;exitX=0;exitY=0.5;exitDx=0;exitDy=0;entryX=0;entryY=0.5;entryDx=0;entryDy=0;dashed=1;strokeColor=#A680B8;strokeWidth=2;" parent="1" source="psz0ONWJy-oLL9iXoKW5-27" target="psz0ONWJy-oLL9iXoKW5-9" edge="1">
          <mxGeometry relative="1" as="geometry"/>
        </mxCell>
        <mxCell id="psz0ONWJy-oLL9iXoKW5-27" value="mtop预发" style="rounded=1;whiteSpace=wrap;html=1;fillColor=#fff2cc;strokeColor=#d6b656;gradientColor=#ffd966;" parent="1" vertex="1">
          <mxGeometry x="110" y="230" width="120" height="60" as="geometry"/>
        </mxCell>
        <mxCell id="psz0ONWJy-oLL9iXoKW5-42" style="edgeStyle=orthogonalEdgeStyle;rounded=0;orthogonalLoop=1;jettySize=auto;html=1;exitX=0.5;exitY=1;exitDx=0;exitDy=0;entryX=0.5;entryY=0;entryDx=0;entryDy=0;dashed=1;strokeColor=#FF0080;strokeWidth=2;" parent="1" target="psz0ONWJy-oLL9iXoKW5-12" edge="1">
          <mxGeometry relative="1" as="geometry">
            <mxPoint x="450" y="290" as="sourcePoint"/>
          </mxGeometry>
        </mxCell>
        <mxCell id="psz0ONWJy-oLL9iXoKW5-28" value="mtop线上" style="rounded=1;whiteSpace=wrap;html=1;fillColor=#d5e8d4;strokeColor=#82b366;gradientColor=#97d077;" parent="1" vertex="1">
          <mxGeometry x="370" y="230" width="120" height="60" as="geometry"/>
        </mxCell>
        <mxCell id="psz0ONWJy-oLL9iXoKW5-31" style="edgeStyle=orthogonalEdgeStyle;rounded=0;orthogonalLoop=1;jettySize=auto;html=1;strokeColor=#A680B8;strokeWidth=2;dashed=1;" parent="1" source="psz0ONWJy-oLL9iXoKW5-29" target="psz0ONWJy-oLL9iXoKW5-27" edge="1">
          <mxGeometry relative="1" as="geometry"/>
        </mxCell>
        <mxCell id="psz0ONWJy-oLL9iXoKW5-41" style="edgeStyle=orthogonalEdgeStyle;rounded=0;orthogonalLoop=1;jettySize=auto;html=1;exitX=0.5;exitY=1;exitDx=0;exitDy=0;dashed=1;strokeColor=#FF0080;strokeWidth=2;" parent="1" source="psz0ONWJy-oLL9iXoKW5-29" target="psz0ONWJy-oLL9iXoKW5-28" edge="1">
          <mxGeometry relative="1" as="geometry"/>
        </mxCell>
        <mxCell id="psz0ONWJy-oLL9iXoKW5-29" value="鲸鸣app" style="rounded=1;whiteSpace=wrap;html=1;fillColor=#dae8fc;strokeColor=#6c8ebf;gradientColor=#7ea6e0;" parent="1" vertex="1">
          <mxGeometry x="230" y="50" width="120" height="60" as="geometry"/>
        </mxCell>
        <mxCell id="3P3_b6RiQZbTQgxE8qaX-1" value="集群预发环境" style="text;html=1;align=center;verticalAlign=middle;resizable=0;points=[];autosize=1;strokeWidth=5;fontSize=19;fontColor=#3333FF;" vertex="1" parent="1">
          <mxGeometry x="105" y="740" width="130" height="30" as="geometry"/>
        </mxCell>
        <mxCell id="3P3_b6RiQZbTQgxE8qaX-2" value="集群生产环境" style="text;html=1;align=center;verticalAlign=middle;resizable=0;points=[];autosize=1;strokeWidth=5;fontSize=19;fontColor=#3333FF;" vertex="1" parent="1">
          <mxGeometry x="380" y="740" width="130" height="30" as="geometry"/>
        </mxCell>
        <mxCell id="3P3_b6RiQZbTQgxE8qaX-4" value="灰度" style="text;html=1;align=center;verticalAlign=middle;resizable=0;points=[];labelBackgroundColor=#ffffff;fontSize=19;fontColor=#3333FF;" vertex="1" connectable="0" parent="1">
          <mxGeometry x="221" y="169" as="geometry">
            <mxPoint x="-2" y="-4" as="offset"/>
          </mxGeometry>
        </mxCell>
        <mxCell id="3P3_b6RiQZbTQgxE8qaX-6" value="线上" style="text;html=1;align=center;verticalAlign=middle;resizable=0;points=[];labelBackgroundColor=#ffffff;fontSize=19;fontColor=#3333FF;" vertex="1" connectable="0" parent="1">
          <mxGeometry x="221" y="179" as="geometry">
            <mxPoint x="145" y="-15" as="offset"/>
          </mxGeometry>
        </mxCell>
      </root>
    </mxGraphModel>
  </diagram>
</mxfile>
